<svg width="24" height="24" viewBox="0 0 24 24" fill="none" xmlns="http://www.w3.org/2000/svg">
<path d="M20.5556 1H3.44451C2.10006 1 1.00006 2.1 1.00006 3.44444V20.5556C1.00006 21.9012 2.10006 23 3.44451 23H12.0001V14.4444H9.55562V11.4194H12.0001V8.91389C12.0001 6.269 13.4814 4.41122 16.6029 4.41122L18.8066 4.41367V7.59756H17.3436C16.1287 7.59756 15.6667 8.50933 15.6667 9.35511V11.4207H18.8054L18.1112 14.4444H15.6667V23H20.5556C21.9001 23 23.0001 21.9012 23.0001 20.5556V3.44444C23.0001 2.1 21.9001 1 20.5556 1Z" fill="#F5E0F5"/>
</svg>
