<svg width="24" height="24" viewBox="0 0 24 24" fill="none" xmlns="http://www.w3.org/2000/svg">
<path d="M20.6429 1H3.35714C2.0558 1 1 2.0558 1 3.35714V20.6429C1 21.9442 2.0558 23 3.35714 23H20.6429C21.9442 23 23 21.9442 23 20.6429V3.35714C23 2.0558 21.9442 1 20.6429 1ZM18.2415 8.79821C18.2513 8.93571 18.2513 9.07812 18.2513 9.21562C18.2513 13.4732 15.0103 18.379 9.08795 18.379C7.26116 18.379 5.56696 17.8487 4.14286 16.9353C4.40313 16.9647 4.65357 16.9746 4.91875 16.9746C6.42634 16.9746 7.81116 16.4638 8.91607 15.5996C7.50179 15.5701 6.31339 14.642 5.9058 13.3652C6.40179 13.4388 6.84866 13.4388 7.35938 13.3062C5.88616 13.0067 4.78125 11.7103 4.78125 10.1437V10.1045C5.20848 10.3451 5.70937 10.4924 6.23482 10.5121C5.79307 10.2182 5.43093 9.81958 5.18072 9.35173C4.93052 8.88388 4.80002 8.36136 4.80089 7.8308C4.80089 7.2317 4.95804 6.6817 5.23795 6.20536C6.82411 8.15982 9.2058 9.43661 11.8772 9.57411C11.4205 7.38884 13.0558 5.61607 15.0201 5.61607C15.9482 5.61607 16.783 6.00402 17.3723 6.63259C18.0991 6.49509 18.7964 6.225 19.4152 5.8567C19.1746 6.60312 18.6688 7.2317 18.0009 7.62946C18.6491 7.56071 19.2777 7.37902 19.8571 7.12857C19.4201 7.77187 18.8701 8.34152 18.2415 8.79821Z" fill="#F5E0F5"/>
</svg>
