<svg width="24" height="24" viewBox="0 0 24 24" fill="none" xmlns="http://www.w3.org/2000/svg">
<path d="M18.875 1C20.0113 1 20.9829 1.40343 21.7897 2.21029C22.5966 3.01714 23 3.98872 23 5.125V18.875C23 20.0113 22.5966 20.9829 21.7897 21.7897C20.9829 22.5966 20.0113 23 18.875 23H8.49089C9.30252 21.8351 9.81814 20.8325 10.0378 19.9922C10.1237 19.6675 10.3767 18.6697 10.7969 16.9987C10.9974 17.3711 11.3483 17.691 11.8496 17.9583C12.3509 18.2257 12.888 18.3594 13.4609 18.3594C15.1892 18.3594 16.6 17.6552 17.6934 16.2467C18.7867 14.8383 19.3333 13.0551 19.3333 10.8971C19.3333 10.0951 19.1662 9.31923 18.832 8.56966C18.4978 7.8201 18.0371 7.15647 17.4499 6.57878C16.8626 6.00109 16.1345 5.53798 15.2656 5.18945C14.3967 4.84093 13.4562 4.66667 12.444 4.66667C11.451 4.66667 10.5224 4.80273 9.6582 5.07487C8.79405 5.34701 8.06359 5.71224 7.4668 6.17057C6.87001 6.62891 6.35677 7.15169 5.92708 7.73893C5.4974 8.32617 5.1799 8.93728 4.97461 9.57227C4.76931 10.2072 4.66667 10.8398 4.66667 11.4701C4.66667 12.444 4.85525 13.3034 5.23242 14.0482C5.60959 14.793 6.1658 15.3181 6.90104 15.6237C7.02517 15.6714 7.13737 15.6714 7.23763 15.6237C7.33789 15.576 7.40712 15.4852 7.44531 15.3516C7.5408 14.9314 7.61241 14.6402 7.66016 14.4779C7.71745 14.2582 7.66493 14.0577 7.5026 13.8763C7.02517 13.2843 6.78646 12.5681 6.78646 11.7279C6.78646 10.2956 7.2806 9.07096 8.26888 8.05404C9.25716 7.03711 10.5486 6.52865 12.1432 6.52865C13.566 6.52865 14.676 6.91536 15.4733 7.6888C16.2706 8.46224 16.6693 9.46484 16.6693 10.6966C16.6693 12.3008 16.347 13.6662 15.7025 14.793C15.0579 15.9197 14.2296 16.4831 13.2174 16.4831C12.6445 16.4831 12.1814 16.2754 11.8281 15.86C11.4748 15.4447 11.365 14.9505 11.4987 14.3776C11.5751 14.053 11.7016 13.6113 11.8783 13.0527C12.0549 12.4941 12.1957 12.0072 12.3008 11.5918C12.4058 11.1764 12.4583 10.8207 12.4583 10.5247C12.4583 10.0569 12.3318 9.66775 12.0788 9.35742C11.8257 9.04709 11.4653 8.89193 10.9974 8.89193C10.4149 8.89193 9.92079 9.16168 9.51497 9.70117C9.10916 10.2407 8.90625 10.9067 8.90625 11.6992C8.90625 12.3867 9.02083 12.9644 9.25 13.4323L7.84635 19.362C7.61719 20.3168 7.58377 21.5295 7.74609 23H5.125C3.98872 23 3.01714 22.5966 2.21029 21.7897C1.40343 20.9829 1 20.0113 1 18.875V5.125C1 3.98872 1.40343 3.01714 2.21029 2.21029C3.01714 1.40343 3.98872 1 5.125 1H18.875Z" fill="#F5E0F5"/>
</svg>
