<svg width="24" height="24" viewBox="0 0 24 24" fill="none" xmlns="http://www.w3.org/2000/svg">
<path d="M19.3333 1H4.66667C2.58889 1 1 2.58889 1 4.66667V19.3333C1 21.4111 2.58889 23 4.66667 23H19.3333C21.4111 23 23 21.4111 23 19.3333V4.66667C23 2.58889 21.4111 1 19.3333 1ZM12 8.33333C14.0778 8.33333 15.6667 9.92222 15.6667 12C15.6667 14.0778 14.0778 15.6667 12 15.6667C9.92222 15.6667 8.33333 14.0778 8.33333 12C8.33333 9.92222 9.92222 8.33333 12 8.33333ZM16.6444 5.88889C16.6444 5.03333 17.3778 4.42222 18.1111 4.42222C18.8444 4.42222 19.5778 5.15556 19.5778 5.88889C19.5778 6.62222 18.9667 7.35556 18.1111 7.35556C17.2556 7.35556 16.6444 6.74444 16.6444 5.88889ZM19.3333 20.5556H4.66667C3.93333 20.5556 3.44444 20.0667 3.44444 19.3333V12H5.88889C5.88889 15.4222 8.57778 18.1111 12 18.1111C15.4222 18.1111 18.1111 15.4222 18.1111 12H20.5556V19.3333C20.5556 20.0667 20.0667 20.5556 19.3333 20.5556Z" fill="#F5E0F5"/>
</svg>
